<?xml version="1.0" encoding="UTF-8" standalone="no"?>
<svg
   width="16"
   height="16"
   version="1.1"
   id="svg4"
   sodipodi:docname="face-laugh-symbolic.svg"
   inkscape:version="1.1.2 (0a00cf5339, 2022-02-04, custom)"
   xmlns:inkscape="http://www.inkscape.org/namespaces/inkscape"
   xmlns:sodipodi="http://sodipodi.sourceforge.net/DTD/sodipodi-0.dtd"
   xmlns="http://www.w3.org/2000/svg"
   xmlns:svg="http://www.w3.org/2000/svg">
  <defs
     id="defs8" />
  <sodipodi:namedview
     id="namedview6"
     pagecolor="#505050"
     bordercolor="#eeeeee"
     borderopacity="1"
     inkscape:pageshadow="0"
     inkscape:pageopacity="0"
     inkscape:pagecheckerboard="0"
     showgrid="false"
     inkscape:zoom="29.5625"
     inkscape:cx="8.0169133"
     inkscape:cy="8.0169133"
     inkscape:window-width="1010"
     inkscape:window-height="688"
     inkscape:window-x="0"
     inkscape:window-y="0"
     inkscape:window-maximized="0"
     inkscape:current-layer="svg4" />
  <path
     style="fill:#d3d7cf"
     d="M 8,1 C 4.13,1 1,4.14 1,8 1,11.87 4.13,15 8,15 11.87,15 15,11.87 15,8 15,4.14 11.87,1 8,1 Z M 5,5 C 5.55,5 6,5.45 6,6 6,6.19 5.94,6.35 5.85,6.5 5.67,6.21 5.37,6 5,6 4.63,6 4.33,6.21 4.15,6.5 4.06,6.35 4,6.19 4,6 4,5.45 4.45,5 5,5 Z M 11,5 C 11.55,5 12,5.45 12,6 12,6.19 11.94,6.35 11.85,6.5 11.67,6.21 11.37,6 11,6 10.63,6 10.33,6.21 10.15,6.5 10.06,6.35 10,6.19 10,6 10,5.45 10.45,5 11,5 Z M 3.42,10 H 12.58 C 11.79,11.82 9.99,13 8,13 6.01,13 4.22,11.82 3.42,10 Z"
     id="path2" />
</svg>
