<?xml version="1.0" encoding="UTF-8" standalone="no"?>
<svg
   width="16"
   height="16"
   version="1.1"
   id="svg4"
   sodipodi:docname="face-tired-symbolic.svg"
   inkscape:version="1.1.2 (0a00cf5339, 2022-02-04, custom)"
   xmlns:inkscape="http://www.inkscape.org/namespaces/inkscape"
   xmlns:sodipodi="http://sodipodi.sourceforge.net/DTD/sodipodi-0.dtd"
   xmlns="http://www.w3.org/2000/svg"
   xmlns:svg="http://www.w3.org/2000/svg">
  <defs
     id="defs8" />
  <sodipodi:namedview
     id="namedview6"
     pagecolor="#505050"
     bordercolor="#eeeeee"
     borderopacity="1"
     inkscape:pageshadow="0"
     inkscape:pageopacity="0"
     inkscape:pagecheckerboard="0"
     showgrid="false"
     inkscape:zoom="29.5625"
     inkscape:cx="8.0169133"
     inkscape:cy="8.0169133"
     inkscape:window-width="1010"
     inkscape:window-height="688"
     inkscape:window-x="0"
     inkscape:window-y="0"
     inkscape:window-maximized="0"
     inkscape:current-layer="svg4" />
  <path
     style="fill:#d3d7cf"
     d="M 8,1 C 4.13,1 1,4.13 1,8 1,11.86 4.13,15 8,15 11.87,15 15,11.86 15,8 15,4.13 11.87,1 8,1 Z M 6.66,6.37 C 6.66,6.37 7.09,6.45 7.16,7 7.22,7.54 6.75,8 6.75,8 H 6 C 6,8.55 5.55,9 5,9 4.45,9 4,8.55 4,8 H 2.75 C 2.56,7.7 2.51,7.23 2.84,6.93 Z M 9.28,6.37 H 9.34 L 13.16,6.93 C 13.49,7.23 13.44,7.7 13.25,8 H 12 C 12,8.55 11.55,9 11,9 10.45,9 10,8.55 10,8 H 9.25 C 9.25,8 8.78,7.54 8.84,7 8.89,6.59 9.16,6.42 9.28,6.37 Z M 6.5,12 H 9.5 C 9.78,12 10,12.21 10,12.46 V 12.53 C 10,12.79 9.78,13 9.5,13 H 6.5 C 6.22,13 6,12.79 6,12.53 V 12.46 C 6,12.21 6.22,12 6.5,12 Z"
     id="path2" />
</svg>
