<?xml version="1.0" encoding="UTF-8" standalone="no"?>
<svg
   width="16"
   height="16"
   version="1.1"
   id="svg4"
   sodipodi:docname="face-cool-symbolic.svg"
   inkscape:version="1.1.2 (0a00cf5339, 2022-02-04, custom)"
   xmlns:inkscape="http://www.inkscape.org/namespaces/inkscape"
   xmlns:sodipodi="http://sodipodi.sourceforge.net/DTD/sodipodi-0.dtd"
   xmlns="http://www.w3.org/2000/svg"
   xmlns:svg="http://www.w3.org/2000/svg">
  <defs
     id="defs8" />
  <sodipodi:namedview
     id="namedview6"
     pagecolor="#505050"
     bordercolor="#eeeeee"
     borderopacity="1"
     inkscape:pageshadow="0"
     inkscape:pageopacity="0"
     inkscape:pagecheckerboard="0"
     showgrid="false"
     inkscape:zoom="29.5625"
     inkscape:cx="8.0169133"
     inkscape:cy="8.0169133"
     inkscape:window-width="1010"
     inkscape:window-height="688"
     inkscape:window-x="0"
     inkscape:window-y="0"
     inkscape:window-maximized="0"
     inkscape:current-layer="svg4" />
  <path
     style="fill:#d3d7cf"
     d="M 8,1 C 5.62,1 3.52,2.19 2.25,4 H 13.75 C 12.48,2.19 10.38,1 8,1 Z M 13.97,4.34 14,5.75 C 14,7.26 13.29,8 11.94,8 H 11.09 C 9.74,8 9,7.26 9,5.75 V 5 H 7 V 5.75 C 6.98,7.26 6.2,8 4.84,8 H 4 C 2.64,8 2.01,7.26 2,5.75 L 1.97,4.43 C 1.35,5.48 1,6.7 1,8 1,11.86 4.13,15 8,15 11.87,15 15,11.86 15,8 15,6.65 14.62,5.4 13.97,4.34 Z M 5.17,9.83 C 5.92,10.58 6.94,11 8,11 9.06,11 10.08,10.58 10.83,9.83 L 11.53,10.53 C 10.6,11.47 9.33,12 8,12 6.67,12 5.4,11.47 4.47,10.53 Z"
     id="path2" />
</svg>
