<?xml version="1.0" encoding="UTF-8" standalone="no"?>
<svg
   width="16"
   height="16"
   version="1.1"
   id="svg6"
   sodipodi:docname="face-embarrassed-symbolic.svg"
   inkscape:version="1.1.2 (0a00cf5339, 2022-02-04, custom)"
   xmlns:inkscape="http://www.inkscape.org/namespaces/inkscape"
   xmlns:sodipodi="http://sodipodi.sourceforge.net/DTD/sodipodi-0.dtd"
   xmlns="http://www.w3.org/2000/svg"
   xmlns:svg="http://www.w3.org/2000/svg">
  <defs
     id="defs10" />
  <sodipodi:namedview
     id="namedview8"
     pagecolor="#505050"
     bordercolor="#eeeeee"
     borderopacity="1"
     inkscape:pageshadow="0"
     inkscape:pageopacity="0"
     inkscape:pagecheckerboard="0"
     showgrid="false"
     inkscape:zoom="29.5625"
     inkscape:cx="8.0169133"
     inkscape:cy="8.0169133"
     inkscape:window-width="1010"
     inkscape:window-height="688"
     inkscape:window-x="0"
     inkscape:window-y="0"
     inkscape:window-maximized="0"
     inkscape:current-layer="svg6" />
  <path
     style="fill:#d3d7cf"
     d="M 8,1 C 4.13,1 1,4.13 1,8 1,11.86 4.13,15 8,15 11.87,15 15,11.86 15,8 15,4.13 11.87,1 8,1 Z M 5,5 C 5.55,5 6,5.45 6,6 6,6.55 5.55,7 5,7 4.45,7 4,6.55 4,6 4,5.45 4.45,5 5,5 Z M 11,5 C 11.55,5 12,5.45 12,6 12,6.55 11.55,7 11,7 10.45,7 10,6.55 10,6 10,5.45 10.45,5 11,5 Z M 4,7.5 C 4.83,7.5 5.5,8.17 5.5,9 5.5,9.82 4.83,10.5 4,10.5 3.17,10.5 2.5,9.82 2.5,9 2.5,8.17 3.17,7.5 4,7.5 Z M 12,7.5 C 12.83,7.5 13.5,8.17 13.5,9 13.5,9.82 12.83,10.5 12,10.5 11.17,10.5 10.5,9.82 10.5,9 10.5,8.17 11.17,7.5 12,7.5 Z M 6.5,12 H 9.5 C 9.78,12 10,12.18 10,12.43 V 12.56 C 10,12.81 9.78,13 9.5,13 H 6.5 C 6.22,13 6,12.81 6,12.56 V 12.43 C 6,12.18 6.22,12 6.5,12 Z"
     id="path2" />
  <path
     style="opacity:.35;fill:#444444"
     d="M 4,7.5 C 3.17,7.5 2.5,8.17 2.5,9 2.5,9.83 3.17,10.5 4,10.5 4.83,10.5 5.5,9.83 5.5,9 5.5,8.17 4.83,7.5 4,7.5 Z M 12,7.5 C 11.17,7.5 10.5,8.17 10.5,9 10.5,9.83 11.17,10.5 12,10.5 12.83,10.5 13.5,9.83 13.5,9 13.5,8.17 12.83,7.5 12,7.5 Z"
     id="path4" />
</svg>
