<?xml version="1.0" encoding="UTF-8" standalone="no"?>
<svg
   width="16"
   height="16"
   version="1.1"
   id="svg4"
   sodipodi:docname="face-yawn-symbolic.svg"
   inkscape:version="1.1.2 (0a00cf5339, 2022-02-04, custom)"
   xmlns:inkscape="http://www.inkscape.org/namespaces/inkscape"
   xmlns:sodipodi="http://sodipodi.sourceforge.net/DTD/sodipodi-0.dtd"
   xmlns="http://www.w3.org/2000/svg"
   xmlns:svg="http://www.w3.org/2000/svg">
  <defs
     id="defs8" />
  <sodipodi:namedview
     id="namedview6"
     pagecolor="#505050"
     bordercolor="#eeeeee"
     borderopacity="1"
     inkscape:pageshadow="0"
     inkscape:pageopacity="0"
     inkscape:pagecheckerboard="0"
     showgrid="false"
     inkscape:zoom="29.5625"
     inkscape:cx="8.0169133"
     inkscape:cy="8.0169133"
     inkscape:window-width="1010"
     inkscape:window-height="688"
     inkscape:window-x="0"
     inkscape:window-y="0"
     inkscape:window-maximized="0"
     inkscape:current-layer="svg4" />
  <path
     style="fill:#d3d7cf"
     d="M 8,1 C 11.87,1 15,4.13 15,8 15,11.86 11.87,15 8,15 4.13,15 1,11.86 1,8 1,4.13 4.13,1 8,1 Z M 5.53,4 C 4.8,4 4.06,4.44 4,5.31 3.88,7.04 5.5,4.97 7,5.31 7,4.44 6.27,4 5.53,4 Z M 10.47,4 C 9.73,4 9,4.44 9,5.31 10.5,4.97 12.13,7.04 12,5.31 11.94,4.44 11.2,4 10.47,4 Z M 8,7 C 6.62,7 5.5,8.34 5.5,10 5.5,11.65 6.62,13 8,13 9.38,13 10.5,11.65 10.5,10 10.5,8.34 9.38,7 8,7 Z"
     id="path2" />
</svg>
