<?xml version="1.0" encoding="UTF-8" standalone="no"?>
<svg
   width="16"
   height="16"
   version="1.1"
   id="svg4"
   sodipodi:docname="face-angry-symbolic.svg"
   inkscape:version="1.1.2 (0a00cf5339, 2022-02-04, custom)"
   xmlns:inkscape="http://www.inkscape.org/namespaces/inkscape"
   xmlns:sodipodi="http://sodipodi.sourceforge.net/DTD/sodipodi-0.dtd"
   xmlns="http://www.w3.org/2000/svg"
   xmlns:svg="http://www.w3.org/2000/svg">
  <defs
     id="defs8" />
  <sodipodi:namedview
     id="namedview6"
     pagecolor="#505050"
     bordercolor="#eeeeee"
     borderopacity="1"
     inkscape:pageshadow="0"
     inkscape:pageopacity="0"
     inkscape:pagecheckerboard="0"
     showgrid="false"
     inkscape:zoom="29.5625"
     inkscape:cx="8.0169133"
     inkscape:cy="8.0169133"
     inkscape:window-width="1010"
     inkscape:window-height="688"
     inkscape:window-x="0"
     inkscape:window-y="0"
     inkscape:window-maximized="0"
     inkscape:current-layer="svg4" />
  <path
     style="fill:#d3d7cf"
     d="M 8,1 C 4.13,1 1,4.13 1,8 1,11.86 4.13,15 8,15 11.87,15 15,11.86 15,8 15,4.13 11.87,1 8,1 Z M 3.03,6.37 C 3.07,6.36 3.09,6.37 3.09,6.37 3.1,6.39 6.92,6.93 6.94,6.93 7.28,7.23 7.19,7.7 7,8 H 6 C 6,8.55 5.55,9 5,9 4.45,9 4,8.55 4,8 H 3 C 3,8 2.53,7.54 2.59,7 2.64,6.59 2.91,6.42 3.03,6.37 Z M 12.91,6.37 C 12.92,6.35 13.34,6.45 13.41,7 13.47,7.54 13,8 13,8 H 12 C 12,8.55 11.55,9 11,9 10.45,9 10,8.55 10,8 H 9 C 8.81,7.7 8.73,7.23 9.06,6.93 9.08,6.93 12.9,6.39 12.91,6.37 Z M 6.5,12 H 9.5 C 9.78,12 10,12.22 10,12.5 10,12.77 9.78,13 9.5,13 H 6.5 C 6.22,13 6,12.77 6,12.5 6,12.22 6.22,12 6.5,12 Z"
     id="path2" />
</svg>
